<?xml version="1.0" encoding="UTF-8" standalone="no"?>
<svg version="1.0" xmlns="http://www.w3.org/2000/svg"
     viewBox="0 0 320 360"
     width="40px" height="50px"
     preserveAspectRatio="xMidYMid meet">
    <g transform="translate(0,400) scale(0.1,-0.1)"
       fill="#ffffff" stroke="none">
        <path d="M1450 3875 c-103 -22 -229 -77 -320 -138 -25 -17 -87 -73 -139 -126
-92 -94 -140 -158 -176 -234 -10 -21 -36 -51 -59 -66 -75 -52 -182 -164 -211
-221 -41 -80 -64 -164 -72 -253 l-6 -78 -42 -25 c-47 -27 -120 -120 -147 -186
-22 -54 -23 -180 -3 -238 8 -23 28 -62 45 -86 36 -54 37 -61 9 -69 -36 -12
-107 -84 -147 -149 -36 -60 -37 -63 -37 -161 1 -89 4 -106 27 -151 15 -28 41
-63 58 -77 16 -14 30 -30 30 -36 0 -6 -20 -29 -45 -52 -26 -24 -59 -70 -78
-108 -28 -58 -32 -75 -32 -151 0 -72 4 -94 28 -145 30 -64 90 -132 147 -168
l35 -22 1290 -2 c854 -1 1304 2 1330 9 53 13 124 89 167 176 29 59 33 76 33
152 0 102 -25 166 -99 248 -25 29 -46 57 -46 61 0 5 17 30 38 55 52 63 72 124
72 219 0 59 -5 88 -21 120 -30 58 -119 178 -129 172 -4 -3 -18 3 -31 14 l-22
18 30 39 c47 61 65 118 66 209 0 66 -5 90 -26 138 -32 68 -92 136 -153 172
-43 25 -44 27 -44 75 0 95 -66 299 -119 366 -24 30 -136 121 -172 140 -25 12
-79 96 -120 184 -35 75 -272 270 -394 323 -22 9 -83 28 -135 42 -77 20 -116
25 -210 24 -63 -1 -140 -7 -170 -14z m325 -116 c117 -26 194 -65 327 -166 98
-74 198 -189 198 -227 0 -3 -301 -6 -670 -6 -572 0 -670 2 -670 14 0 8 23 47
50 87 78 113 278 251 419 289 103 27 247 31 346 9z m648 -544 c73 -35 146
-115 192 -209 36 -75 67 -196 55 -216 -5 -8 -283 -11 -1046 -11 l-1039 0 2 52
c4 92 40 173 132 303 28 38 50 56 102 80 l67 31 738 -1 739 -1 58 -28z m327
-585 c59 -33 116 -109 124 -167 13 -94 -30 -190 -106 -240 l-42 -28 -1106 0
-1106 0 -42 27 c-22 15 -53 48 -67 73 -25 42 -27 52 -23 139 2 77 7 100 24
123 28 38 94 83 135 93 19 5 513 7 1099 7 l1065 -2 45 -25z m84 -561 c52 -14
140 -101 149 -148 12 -60 7 -135 -12 -176 -25 -55 -81 -105 -127 -116 -49 -11
-824 -12 -824 -1 0 5 -25 36 -55 70 -92 102 -206 153 -335 153 -154 -1 -241
-46 -354 -184 l-39 -48 -416 3 c-451 3 -446 3 -497 60 -54 58 -76 156 -54 237
12 46 90 134 131 149 35 13 2385 14 2433 1z m-1659 -603 c-4 -23 -10 -129 -14
-236 l-6 -195 -380 3 c-356 3 -383 5 -423 24 -55 26 -99 80 -118 147 -32 109
21 227 126 275 44 20 60 21 434 22 l388 0 -7 -40z m1696 29 c46 -16 100 -59
118 -94 44 -82 31 -229 -26 -292 -59 -65 -74 -67 -491 -72 -371 -4 -373 -3
-377 17 -2 12 -6 104 -9 206 -2 102 -8 200 -11 218 l-7 32 379 0 c315 0 387
-3 424 -15z"/>
    </g>
        <style>
            .heavy { font: bold 80px sans-serif; }
        </style>
        <text x="48" y="360" fill="goldenrod" class="heavy">menu</text>
</svg>
